<svg width="1920" height="1080" viewBox="0 0 1920 1080" fill="none" xmlns="http://www.w3.org/2000/svg">
  <g stroke="#9333EA" stroke-opacity="0.15">
    <!-- Central large cluster -->
    <path d="M 800 250 L 1120 540 L 800 830" stroke-width="3"/>
    <path d="M 750 540 L 1170 540" stroke-width="1"/>
    <path d="M 960 200 C 1200 400, 1100 700, 960 900" stroke-width="1.5"/>
    <path d="M 960 200 C 700 400, 800 700, 960 900" stroke-width="1.5"/>

    <!-- Top-left fragment -->
    <g transform="translate(150, 100) rotate(-30)">
      <path d="M 0 0 L 150 80 L 50 180" stroke-width="2" stroke-opacity="0.1"/>
      <path d="M 20 100 L 180 120" stroke-width="1" stroke-opacity="0.1"/>
    </g>

    <!-- Bottom-right fragment -->
    <g transform="translate(1600, 850) rotate(45)">
      <path d="M 0 0 L -150 80 L -50 180" stroke-width="2.5" stroke-opacity="0.12"/>
      <path d="M 0 100 C 100 100, 50 200, 200 200" stroke-width="1" stroke-opacity="0.1"/>
    </g>

    <!-- Top-right small detail -->
    <circle cx="1700" cy="200" r="40" stroke-width="1" stroke-opacity="0.08"/>
    <path d="M 1680 180 L 1720 220" stroke-width="1" stroke-opacity="0.08"/>

     <!-- Bottom-left small detail -->
    <path d="M 200 900 L 400 850 L 300 950" stroke-width="1.5" stroke-opacity="0.09" />
  </g>
</svg>
